/* XPM */
static char *d93ed0ae529149d49b07a2b7a8c0b8e1yfHajxkmiFNvoSf8[] = {
/* columns rows colors chars-per-pixel */
"16 16 31 1 ",
"  c #573D39",
". c #4B3128",
"X c #271817",
"o c #D99E5E",
"O c #060402",
"+ c #734B45",
"@ c #392320",
"# c #4F3C43",
"$ c #8F5D55",
"% c #794F4A",
"& c #7E5424",
"* c #623F3A",
"= c #504915",
"- c #6E4843",
"; c #696419",
": c #746F1C",
"> c #442A27",
", c #CE8B42",
"< c #613126",
"1 c #302A07",
"2 c #160C0A",
"3 c #221B08",
"4 c #423F0B",
"5 c #3C2C19",
"6 c #AD8050",
"7 c #43301F",
"8 c #B28735",
"9 c #A87234",
"0 c #B5844F",
"q c #D19A61",
"w c #868220",
/* pixels */
"#%%%%%###%%%%%##",
"%%%%%%$#%%%%%%$#",
"%%%%%%$#%%%%%%$#",
"%%%%%%$#%%%%%%$#",
"%%%%%%$#%%%%%%$#",
"%%%%%$$#%%%%%$$#",
" $$$$$ OOX$$$$ #",
"#     O<,62   ##",
"#%%++39,<2++%%##",
"%%+7Ow1qo0O5-%$#",
"%-.:;O&oo81;.%$#",
"%*=4=3O&&:X.%%$#",
"%%*@@@>X@>%%%%$#",
"%%%%%$$#%%%%%$$#",
" $$$$$ # $$$$$ #",
"#     ###     ##"
};
