/* XPM */
static char *_b4869c3c7ec4242f430ac5f45f82c79KBeUtsjZG0ZUQeml[] = {
/* columns rows colors chars-per-pixel */
"16 16 57 1 ",
"  c #794F4A",
". c #4F545A",
"X c #714943",
"o c #9DB0B9",
"O c #5C3935",
"+ c #4D312D",
"@ c #3A2421",
"# c #573D39",
"$ c #4F3C43",
"% c #8F5D55",
"& c #34201D",
"* c #2A0405",
"= c #1D0D0C",
"- c #020102",
"; c #8B8A91",
": c #E4EAEC",
"> c #804D48",
", c #402825",
"< c #4B302C",
"1 c #3D373B",
"2 c #2A1A19",
"3 c #444143",
"4 c #706970",
"5 c #857E86",
"6 c #728087",
"7 c #282828",
"8 c #895751",
"9 c #362422",
"0 c #563936",
"q c #302228",
"w c #984343",
"e c #7B2B2A",
"r c #363236",
"t c #492D2B",
"y c #AD2C2D",
"u c #657077",
"i c #151214",
"p c #838D95",
"a c #AE3933",
"s c #FAFBFB",
"d c #68433F",
"f c #713634",
"g c #9F3533",
"h c #5C6369",
"j c #621818",
"k c #462B28",
"l c #301C1B",
"z c #949DA6",
"x c #3F0A0A",
"c c #949495",
"v c #8C2E30",
"b c #68191A",
"n c #99A8B1",
"m c #615E65",
"M c #F1F1F1",
"N c #CACACA",
"B c #CF6125",
/* pixels */
"$     $$$     $$",
"     =**0     %$",
"     ,jw-ttO  %$",
"     +15...3O %$",
"    <3pzooou@ %$",
"    luo::::;@%%$",
"#%%%&6os777ik%#$",
"$###=mnsMN3c2#$$",
"$   l-45yaBb@ $$",
"    >=va;;;.@ %$",
"   >g*4566ph@ %$",
"   wy*4.x-11,X%$",
"  Xfe=rie-r&+O8$",
"  d++,&q<2&++O>$",
"#%8XOO9q9OOOOX0$",
"$#####$$$#####$$"
};
